<svg xmlns="http://www.w3.org/2000/svg"  viewBox="0 0 48 48" width="48px" height="48px"><path fill="#fcbf95" d="M9.021,27.032c0,0-1.017-1.181-2.439,0c0,0-0.709,0.914,0.14,3.172c0,0,1.629,6.881,4.055,6.051 c0,0,2.875,8.733,12.991,11.196c0,0,7.793-0.291,12.944-10.914c0,0,2.729,1.148,3.557-3.945c0,0,2.413-5.803-0.566-6.56 c0,0-1.538,0.198-1.666,0.589c-0.062,0.191-6.958,1.284-14.036,1.338C16.608,28.018,9.021,27.032,9.021,27.032z"/><circle cx="17.019" cy="32.006" r="1.208" fill="#4b7bb2"/><circle cx="31" cy="32.006" r="1.208" fill="#4b7bb2"/><path fill="#4b7bb2" d="M9.013,26.533c0,0-0.699-3.919,0.823-5.033s5.998-3.771,11.001-4.13c0,0,11.864-0.431,15.207,2.681 c0,0,3.831,1.963,2.984,5.625c0,0-1.093,1.516-6.04,1.803c0,0-11.449,1.152-17.709,0.353C9.021,27.032,9.013,26.533,9.013,26.533z"/><path fill="#d6e5e5" d="M16.589,21.57c0,0,0.12-1.508,2.142-1.939c0,0,7.372-1.388,9.874-0.251 c0,0,2.908,0.503,3.088,2.777c0,0,0.922,3.375-2.25,4.081l-12.746-0.263L16.589,21.57z"/><path fill="#febf10" d="M9.166,22.741L4.5,22.5l3.652-4.771L4.729,13.63l3.949-0.62l-0.834-5.4l4.788,1.109l2.082-6.122 l5.932,2.397l3.016-4.213l4.935,4.32l5.781-2.286l0.225,5.654l4.787-0.966l-1.174,5.03l5.913,0.884c0,0-3.93,2.94-4.083,3.709 c0,0,4.469,4.736,4.456,5.565l-6.213-0.282c0,0-1.782-5.168-13.787-5.224C11.926,17.127,9.166,22.741,9.166,22.741z"/><path fill="#010101" d="M24.564,37.707c0.004-0.01-0.033-0.158-0.041-0.209c-0.004-0.024-0.007-0.047-0.01-0.071 c-0.002-0.012-0.003-0.018-0.005-0.038c-0.01-0.087-0.021-0.174-0.03-0.26c-0.052-0.487-0.09-0.976-0.119-1.465 c-0.064-1.07-0.118-2.166,0.011-3.233c0.033-0.268-0.253-0.5-0.5-0.5c-0.297,0-0.467,0.231-0.5,0.5 c-0.145,1.195-0.07,2.429,0.015,3.626c0.034,0.483,0.075,0.965,0.138,1.445c0.052,0.393,0.13,1.012,0.715,0.858 C24.625,38.256,24.573,37.686,24.564,37.707z"/><path fill="#010101" d="M20.618,41.659c2.225,0.827,4.705,0.695,6.855-0.292c0.245-0.112,0.307-0.468,0.179-0.684 c-0.149-0.251-0.437-0.293-0.684-0.179c-1.911,0.877-4.121,0.921-6.084,0.191C20.28,40.47,20.019,41.437,20.618,41.659 L20.618,41.659z"/><path fill="#010101" d="M31.855,20.895c-1.365-2.509-5.077-2.519-7.525-2.429c-1.649,0.061-3.311,0.232-4.944,0.468 c-1.117,0.162-2.382,0.46-3.119,1.389c-0.303,0.382-0.312,0.659-0.328,1.117c-0.029,0.862-0.054,1.726-0.047,2.588 c0.011,1.466,0.912,2.56,2.397,2.715c1.771,0.107,3.544,0.158,5.317,0.193c1.67,0.033,3.4,0.189,5.066,0.071 c1.332-0.094,2.776-0.654,3.363-1.938C32.595,23.849,32.494,22.068,31.855,20.895z M30.992,24.908 c-0.691,1.065-2.195,1.127-3.321,1.102c-3.128-0.068-6.257-0.078-9.381-0.266c-1.532-0.16-1.406-1.693-1.387-2.846 c0.008-0.486,0.021-0.972,0.037-1.457c0.004-0.126-0.012-0.281,0.015-0.405c0.003-0.012,0.005-0.014,0.007-0.023 c-0.017,0.061,0.183-0.181,0.212-0.211c0.699-0.702,1.888-0.834,2.822-0.947c1.36-0.165,2.725-0.317,4.094-0.379 c2.041-0.092,5.347-0.267,6.723,1.633C31.501,22.06,31.644,23.903,30.992,24.908z"/><path fill="#010101" d="M27.302,20.458c-0.125-0.214-0.466-0.341-0.684-0.179c-0.356,0.263-0.712,0.527-1.068,0.791 c-0.562-0.404-1.198-0.728-1.912-0.544c-0.753,0.194-1.283,0.905-1.374,1.657c-0.014,0.118-0.008,0.24,0.001,0.361 c-0.354,0.512-0.707,1.025-1.061,1.537c-0.099,0.144-0.085,0.359,0,0.505c0.081,0.138,0.263,0.268,0.432,0.248 c0.667-0.081,1.334-0.163,2.002-0.244c0.052-0.006,0.099-0.018,0.145-0.032c0.229,0.068,0.469,0.101,0.722,0.052 c0.704-0.135,1.046-0.797,1-1.47c-0.019-0.269-0.217-0.5-0.5-0.5c-0.256,0-0.519,0.229-0.5,0.5 c0.004,0.057,0.007,0.114,0.006,0.171c0,0.02-0.008,0.083-0.008,0.091c-0.008,0.035-0.017,0.069-0.026,0.103 c0,0.001-0.001,0.003-0.002,0.004c-0.008,0.013-0.019,0.033-0.022,0.038c-0.003,0.004-0.006,0.009-0.009,0.013 c-0.002,0.002,0.002-0.003-0.001,0c-0.013,0.012-0.016,0.016-0.02,0.021c-0.019,0.011-0.039,0.022-0.058,0.034 c-0.01,0.004-0.02,0.008-0.03,0.01c-0.016,0.004-0.033,0.008-0.051,0.011c-0.004,0.002-0.012,0.006-0.042,0.006 c-0.032,0-0.064,0-0.096-0.001c-0.005,0-0.012,0-0.018-0.001c-0.037-0.014-0.088-0.027-0.129-0.035 c-0.04-0.03-0.086-0.053-0.127-0.082c-0.341-0.251-0.61-0.677-0.623-1.075c-0.012-0.37,0.199-0.761,0.529-0.915 c0.092-0.043,0.198-0.06,0.291-0.059c0.122,0.001,0.243,0.031,0.359,0.077c0.28,0.111,0.533,0.308,0.767,0.494 c0.16,0.127,0.417,0.218,0.606,0.078c0.441-0.326,0.881-0.652,1.322-0.978C27.339,20.982,27.449,20.709,27.302,20.458z"/><path fill="#010101" d="M14.24,13.963c-1.279-1.017-2.403-2.213-3.32-3.566c-0.359-0.53-1.226-0.03-0.863,0.505 c0.83,1.226,1.817,2.331,2.932,3.3c-0.974,0.512-1.845,1.194-2.547,2.056c-0.17,0.209-0.205,0.503,0,0.707 c0.176,0.176,0.536,0.21,0.707,0c0.767-0.941,1.744-1.703,2.871-2.166C14.322,14.674,14.569,14.225,14.24,13.963z"/><path fill="#010101" d="M36.424,15.474c-0.691-0.169-1.546-0.357-1.879-1.066c-0.382-0.814-0.383-1.885-0.336-2.763 c0.014-0.258-0.241-0.516-0.5-0.5c-0.593,0.038-1.186,0.075-1.779,0.113c-0.323,0.02-0.647,0.041-0.97,0.061 c-0.12,0.008-0.241,0.016-0.361,0.023c0.017-0.103-0.01-0.255-0.012-0.349c-0.003-0.162-0.007-0.324-0.01-0.487 c-0.006-0.297-0.012-0.595-0.018-0.892c-0.013-0.622-0.025-1.243-0.038-1.865c-0.013-0.643-1.013-0.645-1,0 c0.016,0.757,0.031,1.514,0.046,2.271c0.008,0.378,0.016,0.757,0.023,1.135c0.006,0.292-0.016,0.598,0.146,0.853 c0.346,0.545,1.177,0.314,1.71,0.28c0.584-0.037,1.168-0.074,1.752-0.111c-0.015,0.967,0.078,2.045,0.547,2.854 c0.503,0.868,1.498,1.183,2.414,1.407C36.783,16.592,37.05,15.628,36.424,15.474z"/><path fill="#010101" d="M18.571,29.649c-0.674-0.223-1.391-0.297-2.095-0.36c-0.79-0.071-1.574-0.086-2.354,0.078 c-0.63,0.132-0.363,1.096,0.266,0.964c0.542-0.113,1.094-0.105,1.645-0.07C15.42,30.604,15,31.25,15,32 c0,0.344,0.096,0.664,0.25,0.947c-0.122-0.029-0.247-0.048-0.366-0.091c-0.024-0.009-0.048-0.019-0.072-0.028c-0.001,0,0,0-0.001,0 c-0.049-0.024-0.099-0.047-0.147-0.074c-0.047-0.026-0.092-0.053-0.137-0.082c-0.008-0.006-0.028-0.018-0.042-0.03 c-0.006-0.005-0.013-0.011-0.019-0.016c-0.199-0.17-0.515-0.21-0.707,0c-0.171,0.187-0.213,0.526,0,0.707 c0.433,0.369,0.977,0.569,1.535,0.655c0.538,0.083,1.072,0.083,1.608,0.001C16.935,33.992,16.966,34,17,34c1.103,0,2-0.897,2-2 c0-0.498-0.19-0.949-0.493-1.3c0.74,0.31,1.421,0.874,1.45,1.726c0.022,0.642,1.023,0.645,1,0 C20.909,31.044,19.812,30.061,18.571,29.649z M17,33c-0.552,0-1-0.448-1-1s0.448-1,1-1s1,0.448,1,1C18,32.552,17.552,33,17,33z"/><path fill="#010101" d="M34.919,30.076c-1.22-0.985-2.849-1.204-4.34-0.78c-1.586,0.451-2.889,1.558-3.976,2.758 c-0.431,0.476,0.274,1.185,0.707,0.707c0.578-0.639,1.227-1.245,1.95-1.729C29.1,31.32,29,31.647,29,32c0,1.103,0.897,2,2,2 c0.039,0,0.075-0.009,0.113-0.011c0.03,0.006,0.057,0.019,0.089,0.02c0.453,0.024,0.914-0.03,1.358-0.121 c0.434-0.089,0.884-0.231,1.256-0.476c0.218-0.144,0.331-0.449,0.179-0.684c-0.14-0.218-0.451-0.333-0.684-0.179 c-0.075,0.049-0.152,0.094-0.233,0.133c-0.019,0.009-0.038,0.018-0.057,0.027C33.019,32.71,33.01,32.714,33,32.718 c-0.009,0.004-0.019,0.008-0.024,0.01c-0.026,0.01-0.052,0.02-0.078,0.029c-0.018,0.006-0.037,0.009-0.055,0.015 C32.944,32.534,33,32.273,33,32c0-0.878-0.573-1.617-1.361-1.886c0.91-0.092,1.852,0.087,2.574,0.669 C34.709,31.184,35.421,30.481,34.919,30.076z M32,32c0,0.552-0.448,1-1,1s-1-0.448-1-1s0.448-1,1-1S32,31.448,32,32z"/><circle cx="18.5" cy="21.5" r=".5" fill="#010101"/><circle cx="18.5" cy="24.5" r=".5" fill="#010101"/><circle cx="29.5" cy="21.5" r=".5" fill="#010101"/><circle cx="29.5" cy="24.5" r=".5" fill="#010101"/><path fill="#010101" d="M44.932,22.248c-0.986-1.985-2.735-3.531-4.336-5.037c0.972-1.508,2.552-2.536,4.157-3.279 c0.392-0.181,0.28-0.822-0.119-0.914c-1.94-0.446-3.951-0.651-5.939-0.828c0.466-1.509,0.774-3.062,1.288-4.557 C40.086,7.332,39.811,6.988,39.5,7c-1.56,0.063-3.047,0.433-4.537,0.852C34.854,6.069,34.907,4.283,35,2.5 c0.022-0.415-0.432-0.574-0.752-0.432c-1.869,0.831-3.79,1.547-5.618,2.468c-1.284-1.828-3.04-3.217-4.877-4.468 c-0.169-0.115-0.472-0.082-0.606,0.078c-1.117,1.329-2.053,2.766-2.906,4.272c-1.818-0.809-3.678-1.521-5.488-2.35 c-0.275-0.126-0.66-0.044-0.734,0.299c-0.434,2.003-0.879,4.01-1.734,5.879C10.747,7.787,9.16,7.515,7.633,7.018 C7.24,6.89,6.956,7.283,7.018,7.633c0.295,1.68,0.749,3.326,1.075,4.999C6.91,12.909,5.723,12.993,4.5,13 c-0.442,0.002-0.648,0.541-0.354,0.854c1.159,1.232,2.118,2.63,3.242,3.891c-1.19,1.436-2.468,2.834-3.321,4.503 C3.89,22.596,4.112,22.976,4.5,23c1.288,0.08,2.578,0.104,3.866,0.168C8.17,24.043,8.234,24.96,8.353,25.86 c-0.668-0.129-1.399,0.062-1.909,0.559c-1.12,1.092-0.713,2.568-0.231,3.85c0.577,1.535,1.09,3.117,1.765,4.612 c0.504,1.118,1.468,2.329,2.854,2.156c0.009-0.001,0.015-0.006,0.024-0.008c0.112,0.332,0.225,0.664,0.358,0.99 c1.406,3.437,4.153,5.79,7.179,7.8c1.502,0.998,3.139,1.889,4.957,2.097c1.851,0.212,3.64-0.421,5.22-1.335 c2.983-1.728,5.517-4.234,7.281-7.196c0.415-0.698,0.771-1.427,1.096-2.168c0.006,0.001,0.009,0.005,0.016,0.006 c1.402,0.202,2.527-0.715,3.072-1.954c0.301-0.686,0.455-1.419,0.623-2.146c0.2-0.865,0.4-1.731,0.6-2.596 c0.309-1.334,0.766-2.891-0.102-4.12c-0.421-0.595-0.951-0.814-1.503-0.812c0.105-0.898-0.011-1.775-0.306-2.594 C41.052,23.074,42.804,23.18,44.5,23C44.886,22.959,45.111,22.609,44.932,22.248z M38.65,25.815 c-0.313,0.133-0.618,0.313-0.898,0.521c-0.005,0.002-0.01,0.001-0.015,0.004c-1.035,0.495-2.182,0.562-3.308,0.635 c-1.182,0.077-2.359,0.207-3.541,0.297c-2.383,0.181-4.772,0.283-7.162,0.307c-2.39,0.023-4.78-0.032-7.166-0.167 c-2.333-0.132-4.966-0.087-7.141-1.041c-0.004-0.002-0.008-0.001-0.012-0.003c0.002-0.038,0.011-0.073,0.005-0.115 c-0.181-1.178-0.388-2.527,0.198-3.628c0.563-1.059,1.751-1.811,2.747-2.418c2.034-1.24,4.343-1.976,6.69-2.331 c2.612-0.395,5.289-0.288,7.901,0.043c2.548,0.322,5.295,0.706,7.671,1.727c2.361,1.015,4.544,3.268,4.03,6.04 C38.64,25.733,38.648,25.773,38.65,25.815z M8.842,34.377c-0.499-1.113-0.881-2.29-1.31-3.432c-0.345-0.919-1.09-2.19-0.761-3.195 c0.297-0.906,1.404-1.316,2.048-0.499c0.018,0.023,0.039,0.031,0.058,0.049c0.634,2.886,0.87,5.888,1.672,8.737 C9.687,35.974,9.172,35.113,8.842,34.377z M36.052,36.699c-1.183-0.392-2.366-0.784-3.548-1.176 c-0.256-0.085-0.546,0.098-0.615,0.349c-0.075,0.272,0.092,0.53,0.349,0.615c1.13,0.375,2.261,0.749,3.391,1.124 c-0.331,0.669-0.694,1.32-1.1,1.947c-0.783-0.423-1.565-0.846-2.348-1.268c-0.23-0.124-0.555-0.065-0.684,0.179 c-0.123,0.233-0.066,0.551,0.179,0.684c0.762,0.412,1.524,0.823,2.286,1.235c-0.42,0.581-0.878,1.134-1.363,1.666 c-0.608-0.381-1.216-0.762-1.824-1.143c-0.222-0.139-0.561-0.054-0.684,0.179c-0.13,0.246-0.058,0.536,0.179,0.684 c0.541,0.339,1.081,0.678,1.622,1.017c-0.834,0.823-1.743,1.581-2.736,2.246c-1.41,0.944-2.936,1.779-4.661,1.907 c-1.837,0.137-3.546-0.686-5.06-1.64c-0.981-0.618-1.948-1.288-2.859-2.021c0.563-0.461,1.097-0.956,1.596-1.485 c0.18-0.19,0.203-0.521,0-0.707c-0.195-0.179-0.515-0.203-0.707,0c-0.512,0.543-1.06,1.052-1.64,1.523 c-0.006,0.005-0.008,0.014-0.013,0.019c-0.67-0.595-1.292-1.235-1.851-1.928c0.876-0.365,1.753-0.73,2.629-1.095 c0.24-0.1,0.44-0.336,0.349-0.615c-0.075-0.231-0.357-0.457-0.615-0.349c-0.897,0.374-1.795,0.748-2.692,1.122 c-0.093,0.039-0.174,0.102-0.24,0.176c-0.385-0.556-0.735-1.14-1.024-1.767c1.418-0.305,2.82-0.675,4.2-1.123 c0.609-0.198,0.349-1.164-0.266-0.964c-1.417,0.46-2.857,0.841-4.314,1.15c-1.162-3.066-1.387-6.426-2.03-9.629 c1.955,0.6,4.088,0.646,6.107,0.769c0.427,0.026,0.855,0.034,1.282,0.055l2.886,1.435c0.071,0.036,0.147,0.053,0.223,0.053 c0.184,0,0.36-0.102,0.447-0.277c0.123-0.247,0.022-0.548-0.225-0.67l-0.874-0.435c1.306,0.034,2.614,0.047,3.92,0.034 c1.566-0.015,3.132-0.076,4.696-0.159l-1.115,0.561c-0.247,0.124-0.346,0.425-0.222,0.671c0.088,0.175,0.264,0.275,0.446,0.275 c0.076,0,0.152-0.017,0.225-0.054l3.206-1.613c0.139-0.011,0.279-0.015,0.419-0.026c1.234-0.099,2.466-0.207,3.7-0.302 c0.87-0.067,1.716-0.192,2.528-0.476C37.848,30.652,37.294,33.825,36.052,36.699z M40.629,27.711 c0.196,1.079-0.279,2.307-0.52,3.349c-0.249,1.077-0.449,2.181-0.776,3.238c-0.269,0.871-0.924,2.022-1.985,1.961 c1.117-2.951,1.542-6.157,1.224-9.303c0.35-0.248,0.778-0.48,1.193-0.389C40.279,26.679,40.544,27.241,40.629,27.711z M39.131,21.992c-0.089-0.004-0.163,0.016-0.228,0.046c-0.511-0.905-1.229-1.708-2.098-2.323c-2.34-1.658-5.417-2.116-8.184-2.557 c-5.632-0.898-11.748-0.871-16.77,2.185c-1.159,0.705-2.498,1.597-3.135,2.839c-1.119-0.065-2.239-0.095-3.359-0.145 c0.866-1.419,1.996-2.66,3.04-3.948c0.174-0.215,0.201-0.493,0-0.707c-1.012-1.076-1.871-2.28-2.821-3.409 c1.092-0.05,2.167-0.182,3.233-0.481c0.278-0.078,0.396-0.347,0.349-0.615c-0.276-1.57-0.69-3.109-1.01-4.669 c1.423,0.396,2.879,0.665,4.285,1.123c0.196,0.064,0.471-0.04,0.565-0.23c0.921-1.876,1.412-3.881,1.857-5.908 c1.773,0.783,3.582,1.482,5.345,2.289c0.241,0.11,0.543,0.076,0.684-0.179c0.8-1.447,1.674-2.835,2.711-4.122 c1.696,1.177,3.328,2.478,4.453,4.235c0.15,0.235,0.436,0.31,0.684,0.179c1.691-0.889,3.476-1.577,5.232-2.326 C33.885,5.013,33.852,6.758,34,8.5c0.027,0.316,0.299,0.578,0.633,0.482c1.379-0.395,2.748-0.771,4.17-0.916 c-0.444,1.469-0.75,2.978-1.249,4.432c-0.114,0.332,0.181,0.607,0.482,0.633c1.653,0.144,3.329,0.298,4.972,0.584 c-1.41,0.818-2.694,1.896-3.488,3.325c-0.106,0.19-0.084,0.451,0.078,0.606c1.425,1.354,3.028,2.715,4.078,4.409 C42.168,22.139,40.63,22.053,39.131,21.992z"/></svg>